<?xml version="1.0" encoding="utf-8"?><svg viewBox="0 0 640 640" xmlns="http://www.w3.org/2000/svg" xmlns:xlink="http://www.w3.org/1999/xlink"><style>:root>svg{display:none}:root>svg:target{display:block}</style><svg viewBox="0 0 32 20" id="arrow-next" xmlns="http://www.w3.org/2000/svg"><path fill="#333" d="M1.38 8.68h25.776l-6.15-6.18a1.39 1.39 0 010-1.96 1.374 1.374 0 011.95 0l8.505 8.547a1.39 1.39 0 010 1.96l-8.505 8.546a1.373 1.373 0 01-1.95 0 1.39 1.39 0 010-1.96l6.15-6.18H1.379c-.761 0-1.38-.62-1.38-1.387A1.385 1.385 0 011.38 8.68z"/></svg><svg viewBox="0 0 32 20" id="arrow-prev" xmlns="http://www.w3.org/2000/svg"><path fill="gray" d="M30.62 8.68H4.845l6.15-6.18a1.39 1.39 0 000-1.96 1.374 1.374 0 00-1.95 0L.54 9.087a1.39 1.39 0 000 1.96l8.505 8.546a1.373 1.373 0 001.95 0 1.39 1.39 0 000-1.96l-6.15-6.18H30.62c.762 0 1.38-.62 1.38-1.387 0-.765-.618-1.386-1.38-1.386z"/></svg><svg viewBox="0 0 512 512" id="cart" xmlns="http://www.w3.org/2000/svg"><path d="M192 464c0 26.51-21.49 48-48 48s-48-21.49-48-48 21.49-48 48-48 48 21.49 48 48zM512 464c0 26.51-21.49 48-48 48s-48-21.49-48-48 21.49-48 48-48 48 21.49 48 48zM512 256V64H128c0-17.673-14.327-32-32-32H0v32h64l24.037 206.027C73.39 281.756 64 299.777 64 320c0 35.348 28.654 64 64 64h384v-32H128c-17.673 0-32-14.327-32-32 0-.109.007-.218.008-.328L512 256z"/></svg><svg viewBox="0 0 64 45" id="cart-2" xmlns="http://www.w3.org/2000/svg"><path fill="#bebebe" d="M1.243 17.591c-.505-.88-1.273-2.315-1.08-3.38-.039-.911.967-.084 1.234-.46C6.4 10.742 12.77 9.096 18.366 6.68c2.651 1.457 4.956 3.259 7.559 4.764 9.392-4.063 20.304-6.613 30.85-9.526.37-1.336 2.27-1.921 3.548-1.843 1.093 1.01.618 3.02.618 4.609 0 4.76.24 10.725-.31 15.057-7.035 1.904-14.31 3.568-21.132 5.686 1.275 3.34 3.495 5.737 4.936 8.912 5.841-1.103 11.11-3.575 17.277-3.842.869 1.08 1 2.896 2.16 3.687.085 1.008-.885.963-1.235 1.537.59.999 1.241 1.94 1.08 3.689-1.225 3.569-8.336 2.372-6.324-2.767-2.529.4-4.52 1.336-6.941 1.844.195 1.151 2.228 1.764 1.696 4.147-1.23 3.358-9.045 2.29-7.867-1.997-.201-.337-.834.182-1.235.155-2.998-5.516-6.324-10.704-9.409-16.134-4.776-4.564-9.384-9.296-15.117-12.907-6.342 1.366-10.829 4.58-17.277 5.84z" opacity=".5"/></svg><svg viewBox="0 0 47 68" id="dollar" xmlns="http://www.w3.org/2000/svg"><path fill="#bebebe" d="M.506 8.575c.252-2.339 1.505-3.673 2.86-4.908C5.9 3.58 6.354 5.582 7.852 6.53 11.207 4.025 15.214 0 20.101.394c3.716 2.141 5.836 5.88 7.347 10.227-2.076 3.781-9.23 2.478-9.797 7.774 6.018.137 16.215-.829 20.41 2.454 2.426 3.769 7.702 8.203 8.568 13.908C48 43.705 42.91 51.48 36.427 54.392c.871 3.356 3.46 4.993 4.083 8.594-1.157 3.34-3.979 5.013-8.571 4.907-3.199-2.794-3.925-8.067-6.533-11.455-4.873.25-8.655-.597-11.021-2.862.229-2.91-.486-6.762.408-9.001 2.008-1.152 3.194.486 5.308.41-2.174-5.321-5.674-9.313-8.571-13.91-9.3.732-12.53-10.555-8.572-18 .078-2.397-2.46-2.172-2.452-4.5zm27.35 29.865c1.259-3.147-.237-6.407-3.677-6.135.936 2.336 1.825 4.72 3.677 6.135z" opacity=".3"/></svg><svg viewBox="0 0 511.999 511.999" id="group" xmlns="http://www.w3.org/2000/svg"><path d="M438.09 273.32h-39.596c4.036 11.05 6.241 22.975 6.241 35.404v149.65c0 5.182-.902 10.156-2.543 14.782h65.461c24.453 0 44.346-19.894 44.346-44.346v-81.581c.001-40.753-33.155-73.909-73.909-73.909zM107.265 308.725c0-12.43 2.205-24.354 6.241-35.404H73.91c-40.754 0-73.91 33.156-73.91 73.91v81.581c0 24.452 19.893 44.346 44.346 44.346h65.462a44.144 44.144 0 01-2.543-14.783v-149.65zM301.261 234.815h-90.522c-40.754 0-73.91 33.156-73.91 73.91v149.65c0 8.163 6.618 14.782 14.782 14.782h208.778c8.164 0 14.782-6.618 14.782-14.782v-149.65c0-40.754-33.156-73.91-73.91-73.91zM256 38.84c-49.012 0-88.886 39.874-88.886 88.887 0 33.245 18.349 62.28 45.447 77.524 12.853 7.23 27.671 11.362 43.439 11.362s30.586-4.132 43.439-11.362c27.099-15.244 45.447-44.28 45.447-77.524 0-49.012-39.874-88.887-88.886-88.887zM99.918 121.689c-36.655 0-66.475 29.82-66.475 66.475 0 36.655 29.82 66.475 66.475 66.475a66.095 66.095 0 0026.195-5.388c13.906-5.987 25.372-16.585 32.467-29.86a66.05 66.05 0 007.813-31.227c0-36.654-29.82-66.475-66.475-66.475zM412.082 121.689c-36.655 0-66.475 29.82-66.475 66.475a66.045 66.045 0 007.813 31.227c7.095 13.276 18.561 23.874 32.467 29.86a66.095 66.095 0 0026.195 5.388c36.655 0 66.475-29.82 66.475-66.475 0-36.655-29.82-66.475-66.475-66.475z"/></svg><svg viewBox="0 0 512 512" id="heart" xmlns="http://www.w3.org/2000/svg"><path d="M377.594 32c-53.815 0-100.129 43.777-121.582 89.5C234.543 75.778 188.223 32 134.404 32 60.213 32 0 92.22 0 166.416c0 150.923 152.25 190.497 256.011 339.709C354.088 357.837 512 312.522 512 166.416 512 92.22 451.785 32 377.594 32z"/></svg><svg viewBox="0 0 28 18" id="input-footer" xmlns="http://www.w3.org/2000/svg"><path fill="#0b4bec" d="M28 .449a.434.434 0 01-.068.234l-6.49 17.022a.46.46 0 01-.436.295.483.483 0 01-.254-.073l-5.401-3.393-5.159 3.324a.47.47 0 01-.355.14L9.83 18a.485.485 0 01-.13-.02c-.012-.004-.024-.01-.036-.013a.497.497 0 01-.09-.046c-.006-.004-.014-.005-.021-.01-.005-.003-.008-.008-.012-.011a.484.484 0 01-.07-.07l-.022-.024-.006-.006c-.005-.007-.005-.016-.01-.024a.417.417 0 01-.06-.28v-.016l-1.358-7.284L.271 6.248a.446.446 0 01-.244-.461.458.458 0 01.367-.378L27.426.01a.476.476 0 01.037-.006l.014-.001h.012C27.502 0 27.514 0 27.532 0h.002c.022 0 .04.009.06.012.027.004.053.006.079.015a.4.4 0 01.11.053c.01.006.02.01.028.017.044.033.08.07.108.115l.002.002v.001a.428.428 0 01.062.155v.003c.005.026.016.05.017.076zm-19.047 9.7l1.015 5.441 1.28-4.022c0-.001.003-.002.003-.004.002-.006.006-.01.008-.017a.454.454 0 01.043-.084c.007-.011.014-.023.022-.033a.596.596 0 01.028-.032l.017-.016c.016-.015.03-.031.048-.044l11.172-7.94zm3.627 5.089L14.5 14l-.565-.355-1.976-1.242-1.27 4.052z"/></svg><svg viewBox="0 0 53 51" id="percentage" xmlns="http://www.w3.org/2000/svg"><path fill="#bebebe" d="M12.872 48.504c6.38-16.78 14.695-31.611 21.42-48.04.169-.216.419-.352.691-.465 2.556.441 5.047.95 6.91 2.09-.79 3.696-2.755 8.201-4.147 12.067-4.816 11.856-9.696 23.647-14.28 35.74-3.474.393-8.334.207-10.594-1.392zM.895 18.102c-.645-4.982 1.26-7.396 2.072-10.91 1.735-1.422 3.318-2.998 5.99-3.48-.044-.197.09-.219.23-.231 5.31.218 8.51 2.564 10.364 6.265 1.652 7.97-1.928 12.573-7.37 14.158-3.144.472-6.688-.278-8.753-1.623-1.04-1.2-1.827-2.647-2.533-4.18zm6.679-3.715c1.389 1.108 3.39.015 3.915-1.16.008-3.288-4.032-1.051-3.915 1.16zm26.949 19.96c2.211-1.718 3.647-4.215 6.45-5.339-.045-.195.09-.217.23-.23 1.338.118 3.176-.262 4.145.23 3.873 1.514 5.681 5.107 7.14 9.052.512 7.323-2.171 11.428-7.831 12.531-9.374.408-15.243-8.243-10.134-16.244zm8.983 6.962c.138-.555.33-1.06.23-1.856-.854-.509-2.564-.194-3.225.232-.06 1.59 1.658 2.159 2.995 1.624z" opacity=".25"/></svg><svg viewBox="0 0 640 640" id="rocket" xmlns="http://www.w3.org/2000/svg"><path d="M381.856 418.208S607.744 255.2 582.688 68.64c-.544-4.064-1.888-6.816-3.584-8.576-1.728-1.76-4.384-3.136-8.416-3.68C388.384 30.752 229.12 261.888 229.12 261.888 90.944 245.344 100.992 272.896 37.952 424.32c-12.064 28.864 7.488 38.816 28.928 30.688 21.44-8.064 68.736-25.952 68.736-25.952l82.88 84.736-25.376 70.368c-7.936 21.952 1.76 41.952 30.016 29.632 147.968-64.512 174.912-54.208 158.72-195.584zm32.288-189.312c-19.136-19.616-19.136-51.328 0-70.944 19.136-19.552 50.144-19.552 69.312 0 19.136 19.552 19.136 51.296 0 70.944-19.168 19.552-50.208 19.552-69.312 0z"/></svg><svg viewBox="0 0 83 91" id="shopping_cart" xmlns="http://www.w3.org/2000/svg"><path fill="#bebebe" d="M22.409 17.718c-.714-.924-1.844-1.743-1.998-2.748 5.12-4.355 12.106-8.801 18.08-12.679.119-.032.673-.023.437.18.338.706 1.594 2.139 1.708 2.784-3.049 2.184-6.464 4.296-9.13 6.556 4.913 4.755.387 9.787-5.102 11.871-.752-.538-1.839-1.73-2.18-2.783 1.51-1.32 5.643-4.203 4.128-6.047-1.372-1.67-4.13 2.355-5.943 2.866zm33.445 72.913c-3.018-.734-6.97-3.22-8.457-7.695.111-3.089 3.244-7.233 7.313-8.326.857.807 2.473 2.111 2.617 3.432-1.533.923-2.961 2.332-3.297 3.765.31 1.033.635 2.07 1.528 3.217 3.345 1.625 8.088.865 11.854-2.724-1.9-1.054-3.706-3.739-3.379-5.748.498-3.974 6.347-7.505 10.364-7.536 2.234.031 5.436 2.777 5.01 5.603.352.285.893-.378 1.269-.218.355 1.255 1.974 2.212 2.324 3.468-.222.523-.987.416-1.486.835-3.171 1.85-6.098 4.13-8.985 6.302-5.532 4.159-11.522 6.878-16.675 5.625zm15.07-14.123c.927.5 2.547-.286 3.008-1.379-.506-2.39-4.179-.395-3.009 1.38zm-13.428-7.832c-1.067-.721-2.364-2.517-3.013-3.795a172.074 172.074 0 0111.158-9.163c.629.714 1.817.793 2.612 2.021a10.256 10.256 0 01-2.061 2.317c2.356-.319 4.684-.492 6.312 2.852.106 4.305-5.84 8.334-10.142 11.15-.802-.43-1.922-1.628-2.288-2.71 1.986-2.427 6.11-4.429 5.976-7.276-2.863-1.542-5.456 3.606-8.554 4.604zm7.38-15.743c-1.17.595-2.091 1.7-3.042 2.028-.163-.606-.783-2.004-1.382-3 .677-.655 2.151-1.812 3.008-1.849.703.744 1.738 2.007 1.417 2.82zM54.494 42.129c2.185 3.164 2.405 5.93 2.15 8.607-3.234 5.123-9.987 5.247-12.477-.782-1.273.451-2.405 1.604-3.615 2.445.26.364.455.738.435 1.138-.79.566-2.116 1.418-3.08 2.211-.435.98 1.06 2.342 1.2 3.436-.868.737-2.452 1.811-3.477 1.846-.611-.406-1.157-1.137-1.707-1.842-2.832 1.85-7.622 4.145-10.255 6.522-.405.366-.8.801-.833 1.34.761.434 1.795-.49 2.574-.147.872.75 1.339 2.197 1.273 3.073-2.729 2.754-5.59 2.238-7.797.803-4.23-6.566 6.588-11.367 12.64-15.169-.207-1.172-1.693-2.012-1.961-2.927.696-.77 1.497-1.519 2.607-2.207 1.26.463 2.555.744 3.665 1.948a25.58 25.58 0 011.572-1.032c-.282-.372-.563-.744-.854-1.067.328-1.507 2.166-2.228 3.55-3.151 4.523-3.015 9.108-5.797 13.624-8.768.707.71 1.38 1.593 2.033 2.566-.1.45-.708.802-1.267 1.157zm-4.248-4.697c-.486 1.98-2.525 4.416-5.215 5.359-2.418.304-4.525-.94-6.387-3.427-2.148 1.829-5.03 3.516-6.92 5.397-1.275-.79-3.044-2.209-3.593-3.721 5.771-4.53 11.447-9.577 16.63-13.909 1.127.323 2.069 1.594 3.082 2.493.587.776-.477 1.22-1.012 1.773 1.842 1.4 3.843 3.97 3.415 6.035zm-6.314-3.319a8.99 8.99 0 00-1.739 1.63c.56.979 1.203 1.531 2.032 1.154.882-.767.92-2.155-.293-2.784zM36.7 19.328c1.475.166 2.93.438 4.172 1.768.079-.08.13-.026.18.036 2.522 3.632-.636 9.154-5.499 10.096-1.757.34-3.392-.703-4.862-1.62-3.865-4.643 1.046-9.35 6.009-10.28zm-2.386 7.237c.749.255 2.304-.637 2.465-1.486-.917-2.254-4.225-.365-2.465 1.486zm-9.738-17.35c-3.815 6.59-14.563-.96-8.238-5.96 1.031.03 1.99.425 2.865 1.229.327.879-.418 1.547.258 2.494.301.371.703.248 1.088.216 1.734-1.82.09-4.307 1.333-6.222 3.223-1.972 6.05.54 7.876 4.006-.452.67-1.644 1.562-2.175 1.92-.833-.395-1.416-2.033-2.396-1.7-.89 1.204-.444 2.67-.611 4.018zm33.882 43.763c1.006.156 1.789 1.431 2.58 2.673-2.555 2.314-5.543 4.54-8.877 6.7-.83-.731-1.623-1.636-2.397-2.637 2.069-2.386 5.902-4.793 8.694-6.736zM14.922 29.19c.552-1.394.655-2.877 1.409-4.233 2.059.549 4.388-.263 6.527-.115 1.091 1.139 3.173 1.852 3.522 3.613-2.99 1.37-7.823 4.374-12.032 6.92-3.134 1.897-5.738 3.446-6.846 5.976-.336.905.22 1.988.075 2.93-1.233.646-3.485 2.378-5 2.863C.692 46.451 0 43.68.611 42.337c2.842-4.764 9.097-8.852 14.31-13.147zm3.055 8.317c.863-1.522 3.315-2.443 4.242-.005.102.99-.237 1.896-1.01 2.713-1.66 1.129-3.732-1.025-3.232-2.708zm-.453 15.985c1.276-2.003-.641-4.64-.154-6.8 2.908-4.652 8.612-2.464 11.063 1.254-.7 1.007-1.398 2.593-2.79 2.643-.971-.641-1.823-1.887-3.01-1.441-1.067.885-.565 2.08-.541 3.182-.443 1.183-.302 2.327-.868 3.402-1.907 3.63-6.684 3.887-9.316 2.288-.869-.689-2.264-2.153-2.434-3.396-.232-2.053.772-3.859 2.786-5.465.93.233 1.702 1.235 2.47 2.276-.1.7-1.224 1.197-1.049 1.954.96 1.64 2.313 1.316 3.843.103zM3.667 48.77c3.615-3.148 8.485-7.303 12.898-9.384.951.854 1.289 2.214 1.527 3.218-4.363 3.029-8.779 7.026-12.645 9.527-.912-.82-1.49-2.354-1.78-3.362z" opacity=".4"/></svg></svg>