<svg xmlns="http://www.w3.org/2000/svg" width="28" height="18"><path fill="#0b4bec" d="M28 .449a.434.434 0 01-.068.234l-6.49 17.022a.46.46 0 01-.436.295.483.483 0 01-.254-.073l-5.401-3.393-5.159 3.324a.47.47 0 01-.355.14L9.83 18a.485.485 0 01-.13-.02c-.012-.004-.024-.01-.036-.013a.497.497 0 01-.09-.046c-.006-.004-.014-.005-.021-.01-.005-.003-.008-.008-.012-.011a.484.484 0 01-.07-.07l-.022-.024-.006-.006c-.005-.007-.005-.016-.01-.024a.417.417 0 01-.06-.28v-.016l-1.358-7.284L.271 6.248a.446.446 0 01-.244-.461.458.458 0 01.367-.378L27.426.01a.476.476 0 01.037-.006l.014-.001h.012C27.502 0 27.514 0 27.532 0h.002c.022 0 .04.009.06.012.027.004.053.006.079.015a.4.4 0 01.11.053c.01.006.02.01.028.017.044.033.08.07.108.115l.002.002v.001a.428.428 0 01.062.155v.003c.005.026.016.05.017.076zm-19.047 9.7l1.015 5.441 1.28-4.022c0-.001.003-.002.003-.004.002-.006.006-.01.008-.017a.454.454 0 01.043-.084c.007-.011.014-.023.022-.033a.596.596 0 01.028-.032l.017-.016c.016-.015.03-.031.048-.044l11.172-7.94zm3.627 5.089L14.5 14l-.565-.355-1.976-1.242-1.27 4.052z"/></svg>