<?xml version="1.0" encoding="iso-8859-1"?><!DOCTYPE svg PUBLIC "-//W3C//DTD SVG 1.1//EN" "http://www.w3.org/Graphics/SVG/1.1/DTD/svg11.dtd"><svg viewBox="0 0 512 512" xmlns="http://www.w3.org/2000/svg" xmlns:xlink="http://www.w3.org/1999/xlink"><style>:root>svg{display:none}:root>svg:target{display:block}</style><svg viewBox="0 0 512 512" id="tick" xmlns="http://www.w3.org/2000/svg"><path d="M504.502 75.496c-9.997-9.998-26.205-9.998-36.204 0L161.594 382.203 43.702 264.311c-9.997-9.998-26.205-9.997-36.204 0-9.998 9.997-9.998 26.205 0 36.203l135.994 135.992c9.994 9.997 26.214 9.99 36.204 0L504.502 111.7c9.998-9.997 9.997-26.206 0-36.204z"/></svg><svg viewBox="0 0 163.861 163.861" id="triangle" xmlns="http://www.w3.org/2000/svg"><path d="M34.857 3.613C20.084-4.861 8.107 2.081 8.107 19.106v125.637c0 17.042 11.977 23.975 26.75 15.509L144.67 97.275c14.778-8.477 14.778-22.211 0-30.686L34.857 3.613z"/></svg></svg>