<?xml version="1.0" encoding="utf-8"?><!DOCTYPE svg PUBLIC "-//W3C//DTD SVG 1.1//EN" "http://www.w3.org/Graphics/SVG/1.1/DTD/svg11.dtd"><svg viewBox="0 0 163.861 163.861" xmlns="http://www.w3.org/2000/svg" xmlns:xlink="http://www.w3.org/1999/xlink"><style>:root>svg{display:none}:root>svg:target{display:block}</style><svg fill="none" viewBox="0 0 16 12" id="tick" xmlns="http://www.w3.org/2000/svg"><path d="M15.766.24a.788.788 0 00-1.132 0L5.05 10.027 1.366 6.265a.788.788 0 00-1.132 0 .83.83 0 000 1.156l4.25 4.34a.789.789 0 001.132 0l10.15-10.366a.83.83 0 000-1.156z" fill="#fff"/></svg><svg viewBox="0 0 163.861 163.861" id="triangle" xmlns="http://www.w3.org/2000/svg"><path d="M34.857 3.613C20.084-4.861 8.107 2.081 8.107 19.106v125.637c0 17.042 11.977 23.975 26.75 15.509L144.67 97.275c14.778-8.477 14.778-22.211 0-30.686L34.857 3.613z"/></svg></svg>