<?xml version="1.0" encoding="utf-8"?><svg viewBox="0 0 1024 1024" xmlns="http://www.w3.org/2000/svg" xmlns:xlink="http://www.w3.org/1999/xlink"><style>:root>svg{display:none}:root>svg:target{display:block}</style><svg viewBox="0 0 640 640" id="camera" xmlns="http://www.w3.org/2000/svg"><path d="M320 256c-53.024 0-96 43.008-96 96s42.976 96 96 96c52.992 0 96-43.008 96-96s-43.008-96-96-96zm256-96h-76.8c-10.56 0-21.952-8.192-25.248-18.24L454.08 82.208C450.72 72.192 439.392 64 428.8 64H211.2c-10.56 0-21.952 8.192-25.248 18.176l-19.904 59.584C162.72 151.808 151.36 160 140.8 160H64c-35.2 0-64 28.8-64 64v288c0 35.2 28.8 64 64 64h512c35.2 0 64-28.8 64-64V224c0-35.2-28.8-64-64-64zM320 512c-88.384 0-160-71.616-160-160s71.616-160 160-160c88.352 0 160 71.616 160 160s-71.648 160-160 160zm240-249.6c-12.384 0-22.4-10.048-22.4-22.432 0-12.32 10.016-22.4 22.4-22.4s22.4 10.048 22.4 22.4c0 12.384-10.016 22.432-22.4 22.432z"/></svg><svg viewBox="0 0 512 512" id="clock" xmlns="http://www.w3.org/2000/svg"><path d="M329.372 374.628L224 269.255V128h64v114.745l86.628 86.627zM256 0C114.615 0 0 114.615 0 256s114.615 256 256 256 256-114.615 256-256S397.385 0 256 0zm0 448c-106.039 0-192-85.961-192-192S149.961 64 256 64s192 85.961 192 192-85.961 192-192 192z"/></svg><svg viewBox="0 0 640 640" id="edit" xmlns="http://www.w3.org/2000/svg"><path d="M561.952 78.048c-46.144-46.176-80.8-39.264-80.8-39.264L70.72 449.184 38.4 601.568l152.416-32.32 410.432-410.336c-.032 0 6.912-34.656-39.296-80.864zM181.76 550.944l-51.968 11.2c-4.992-9.376-11.04-18.752-22.08-29.824-11.072-11.072-20.448-17.056-29.824-22.112l11.2-51.936 15.04-15.008s28.256.576 60.192 32.512c31.904 31.872 32.512 60.192 32.512 60.192l-15.072 14.976z"/></svg><svg viewBox="0 0 32 32" id="facebook" xmlns="http://www.w3.org/2000/svg"><path d="M19 6h5V0h-5c-3.86 0-7 3.14-7 7v3H8v6h4v16h6V16h5l1-6h-6V7c0-.542.458-1 1-1z"/></svg><svg viewBox="0 0 640 640" id="feather" xmlns="http://www.w3.org/2000/svg"><path d="M136.128 626.144c9.824-31.424 24.64-75.648 44.512-139.584 86.624-13.728 122.464 10.912 177.472-87.328-44.64 13.664-98.464-25.344-95.584-42.272 2.912-16.896 125.216 12.192 205.312-101.536-100.96 22.272-133.248-26.752-120.224-34.144 30.048-17.088 119.232-7.104 166.784-53.408 24.512-23.84 36-81.792 26.016-102.464-11.968-24.992-84.992-62.272-125.248-58.752-40.256 3.488-103.392 153.28-122.144 152.128-18.688-1.184-22.496-67.136 10.208-128.416C268.768 45.632 205.6 93.056 185.792 133.6c-36.896 75.424 3.456 248.512-9.472 254.656-12.96 6.176-56.512-79.392-69.504-118.208-17.76 59.488-18.176 119.072 33.696 198.208-19.552 51.936-30.24 111.712-31.872 142.112-.768 24.288 23.168 29.504 27.488 15.776z"/></svg><svg viewBox="0 0 20 20" id="google" xmlns="http://www.w3.org/2000/svg"><path d="M1.989 5.589c0 1.494.499 2.572 1.482 3.205.806.52 1.74.598 2.226.598.118 0 .213-.006.279-.01 0 0-.154 1.004.59 1.996h-.034c-1.289 0-5.493.269-5.493 3.727 0 3.516 3.861 3.695 4.636 3.695.061 0 .097-.002.097-.002.008 0 .063.002.158.002.497 0 1.782-.062 2.975-.643 1.548-.75 2.333-2.059 2.333-3.885 0-1.764-1.196-2.814-2.069-3.582-.533-.469-.994-.873-.994-1.266 0-.4.337-.701.762-1.082.689-.615 1.339-1.492 1.339-3.15 0-1.457-.189-2.436-1.354-3.057.121-.062.551-.107.763-.137.631-.086 1.554-.184 1.554-.699V1.2H6.64c-.046.002-4.651.172-4.651 4.389zm7.424 9.013c.088 1.406-1.115 2.443-2.922 2.574-1.835.135-3.345-.691-3.433-2.096-.043-.676.254-1.336.835-1.863.589-.533 1.398-.863 2.278-.928.104-.006.207-.012.31-.012 1.699.001 2.849.999 2.932 2.325zM8.212 4.626c.451 1.588-.23 3.246-1.316 3.553a1.417 1.417 0 01-.384.052c-.994 0-1.979-1.006-2.345-2.393-.204-.776-.187-1.458.047-2.112.229-.645.643-1.078 1.163-1.225.125-.035.254-.053.385-.053 1.2 0 1.972.498 2.45 2.178zM16 8V5h-2v3h-3v2h3v3h2v-3h3V8h-3z"/></svg><svg viewBox="0 0 640 640" id="heart-outlined" xmlns="http://www.w3.org/2000/svg"><path d="M550.08 132.992c-53.504-49.12-140.256-49.12-193.76 0L320 166.304l-36.352-33.312c-53.504-49.12-140.224-49.12-193.728 0-60.192 55.232-60.192 144.608 0 199.84L320 544l230.08-211.168c60.16-55.232 60.16-144.64 0-199.84zM515.968 300L320 482.88 124 300c-19.744-18.144-27.392-41.824-27.392-67.008s4.416-45.856 24.192-63.968c17.44-16.032 40.896-24.864 66.016-24.864 25.088 0 48.544 15.232 65.984 31.296l67.2 58.4 67.168-58.432c17.472-16.064 40.896-31.296 66.016-31.296s48.576 8.832 66.016 24.864c19.776 18.112 24.16 38.784 24.16 63.968s-7.616 48.896-27.392 67.04z"/></svg><svg viewBox="0 0 32 32" id="linkedin" xmlns="http://www.w3.org/2000/svg"><path d="M12 12h5.535v2.837h.079c.77-1.381 2.655-2.837 5.464-2.837C28.92 12 30 15.637 30 20.367V30h-5.769v-8.54c0-2.037-.042-4.657-3.001-4.657-3.005 0-3.463 2.218-3.463 4.509V30H12V12zM2 12h6v18H2V12zM8 7a3 3 0 11-6 0 3 3 0 016 0z"/></svg><svg viewBox="0 0 640 640" id="megaphone" xmlns="http://www.w3.org/2000/svg"><path d="M551.136 224.96C500.448 107.008 418.912 17.28 377.664 34.016 307.616 62.528 419.392 199.264 75.36 339.072c-29.728 12.128-37.248 60.416-24.8 89.344 12.416 28.864 53.056 57.632 82.784 45.568 5.152-2.112 24.032-8.192 24.032-8.192 21.216 28.512 43.424 11.616 51.328 29.696 9.472 21.76 30.048 69.056 37.056 85.12s22.88 30.944 34.4 26.56a38585.999 38585.999 0 0165.6-24.928c14.976-5.696 18.528-19.072 13.952-29.568-4.928-11.36-25.152-14.688-30.944-27.936-5.76-13.184-24.608-55.616-30.016-68.992-7.36-18.176 8.288-32.992 31.04-35.328 156.608-16.384 185.888 80.384 239.2 58.688 41.184-16.8 32.8-136.288-17.856-254.144zm-17.632 191.232c-9.184 3.68-70.816-44.864-110.176-136.544-39.392-91.616-34.432-175.36-25.28-179.104 9.152-3.68 69.28 54.944 108.64 146.56 39.392 91.616 35.968 165.344 26.816 169.088z"/></svg><svg viewBox="0 0 512 512" id="music" xmlns="http://www.w3.org/2000/svg"><path d="M480 0h32v368c0 44.183-50.145 80-112 80s-112-35.817-112-80c0-44.184 50.145-80 112-80 31.342 0 59.671 9.2 80 24.02V128l-256 56.889V432c0 44.183-50.144 80-112 80S0 476.183 0 432c0-44.184 50.144-80 112-80 31.342 0 59.671 9.2 80 24.02V64L480 0z"/></svg><svg viewBox="0 0 640 640" id="paper-plane" xmlns="http://www.w3.org/2000/svg"><path d="M596.48 84.288C585.472 88.16 42.208 279.616 31.488 283.392c-9.088 3.2-11.104 11.04-.32 15.328a586947.2 586947.2 0 00121.472 48.672l72 28.832s346.816-254.656 351.488-258.112c4.736-3.456 10.176 3.04 6.752 6.752-3.424 3.744-251.872 272.416-251.872 272.416v.064l-14.464 16.096 19.168 10.304s148.8 80.128 159.424 85.824c9.312 4.992 21.376.864 24.064-10.688 3.168-13.632 91.04-392.352 92.992-400.8 2.528-10.976-4.736-17.664-15.712-13.792zM224 549.184c0 7.872 4.448 10.08 10.592 4.512 8.032-7.328 91.2-81.952 91.2-81.952L224 419.136v130.048z"/></svg><svg viewBox="0 0 640 640" id="pencil" xmlns="http://www.w3.org/2000/svg"><path d="M561.952 78.048c-46.144-46.176-80.8-39.264-80.8-39.264L70.72 449.184 38.4 601.568l152.416-32.32 410.432-410.336c-.032 0 6.912-34.656-39.296-80.864zM181.76 550.944l-51.968 11.2c-4.992-9.376-11.04-18.752-22.08-29.824-11.072-11.072-20.448-17.056-29.824-22.112l11.2-51.936 15.04-15.008s28.256.576 60.192 32.512c31.904 31.872 32.512 60.192 32.512 60.192l-15.072 14.976z"/></svg><svg viewBox="0 0 640 640" id="rocket" xmlns="http://www.w3.org/2000/svg"><path d="M381.856 418.208S607.744 255.2 582.688 68.64c-.544-4.064-1.888-6.816-3.584-8.576-1.728-1.76-4.384-3.136-8.416-3.68C388.384 30.752 229.12 261.888 229.12 261.888 90.944 245.344 100.992 272.896 37.952 424.32c-12.064 28.864 7.488 38.816 28.928 30.688 21.44-8.064 68.736-25.952 68.736-25.952l82.88 84.736-25.376 70.368c-7.936 21.952 1.76 41.952 30.016 29.632 147.968-64.512 174.912-54.208 158.72-195.584zm32.288-189.312c-19.136-19.616-19.136-51.328 0-70.944 19.136-19.552 50.144-19.552 69.312 0 19.136 19.552 19.136 51.296 0 70.944-19.168 19.552-50.208 19.552-69.312 0z"/></svg><svg viewBox="0 0 1024 1024" id="tools" xmlns="http://www.w3.org/2000/svg"><path d="M907.328 43.328c3.68-3.68 5.344-8.928 4.448-14.048s-4.224-9.504-8.96-11.712C829.504-16.992 742.496-1.824 685.28 55.68c-54.336 54.688-73.312 140.576-47.968 212.384L268.064 637.312C248 630.144 226.56 626.56 204.192 626.56c-54.848 0-108.032 21.824-145.888 59.904-57.024 57.344-73.088 142.08-40.992 215.904 2.112 4.864 6.496 8.384 11.712 9.344 5.248.992 10.592-.672 14.304-4.448L155.04 794.976c7.36-7.424 19.232-8.416 25.376-2.176l48.224 50.464c7.008 7.072 6.688 17.984-.704 25.44l-111.296 112c-3.68 3.68-5.312 8.928-4.416 14.048s4.224 9.472 8.928 11.68c26.528 12.512 54.432 18.816 82.912 18.816 50.304 0 98.08-20.224 134.624-56.96 54.336-54.656 73.312-140.544 47.936-212.352l369.248-369.28c20.096 7.168 41.536 10.752 63.904 10.752 54.848 0 108.032-21.824 145.888-59.904 57.024-57.344 73.088-142.08 40.992-215.904-2.112-4.864-6.496-8.384-11.712-9.344-5.152-.896-10.56.672-14.304 4.448L868.928 228.992c-6.88 6.912-18.56 6.848-25.632-.32l-47.968-47.968c-7.232-7.264-7.2-18.176-.032-25.408L907.328 43.328zm-134.656 160l47.968 47.968c19.168 19.264 52 19.36 70.976.288l93.76-94.208c15.008 55.712-.512 115.488-42.368 157.632-31.904 32.096-76.768 50.464-123.2 50.464-21.856 0-42.56-4.096-61.536-12.16-6.016-2.592-12.96-1.184-17.568 3.392l-384 384a15.953 15.953 0 00-3.424 17.504c25.696 61.12 10.048 140-37.216 187.552-42.272 42.496-103.808 57.632-159.52 40.256l94.112-94.72c19.872-20 20.192-51.008.928-70.336l-48.192-50.464c-18.592-18.72-51.648-17.568-70.976 1.984l-93.76 94.208c-15.008-55.712.512-115.488 42.368-157.632 31.904-32.096 76.768-50.464 123.2-50.464 21.856 0 42.56 4.096 61.536 12.16 5.984 2.624 12.96 1.184 17.568-3.392l384-384a15.953 15.953 0 003.424-17.504c-25.696-61.12-10.048-140.032 37.216-187.584 42.24-42.496 103.744-57.536 159.424-40.256l-94.72 94.752c-19.712 19.744-19.712 50.72 0 70.56zM934.72 980.704c-7.072 7.104-19.328 7.104-26.464-.064l-320.96-320c-6.24-6.176-16.384-6.208-22.624.064-6.24 6.24-6.208 16.384.032 22.624l320.928 319.936c9.6 9.632 22.336 14.944 35.904 14.944 13.568 0 26.304-5.312 36.096-15.168l45.728-47.776c19.68-19.776 19.68-50.784-.032-70.592l-320-320c-6.24-6.24-16.384-6.24-22.624 0s-6.24 16.384 0 22.624l319.968 319.968c7.328 7.36 7.328 18.048-.224 25.664l-45.728 47.776zM187.328 100.672l-96-96c-6.24-6.24-16.384-6.24-22.624 0l-64 64c-6.24 6.24-6.24 16.384 0 22.624l96 96c3.104 3.136 7.2 4.704 11.296 4.704s8.192-1.568 11.328-4.672L144 166.624l244.672 244.672C391.808 414.432 395.904 416 400 416s8.192-1.568 11.328-4.672c6.24-6.24 6.24-16.384 0-22.624L166.624 144l20.672-20.672c6.272-6.272 6.272-16.384.032-22.656zM112 153.376L38.624 80 80 38.624 153.376 112 112 153.376z"/></svg><svg viewBox="0 0 640 640" id="trophy" xmlns="http://www.w3.org/2000/svg"><path d="M357.76 459.392c0-46.432 35.2-72.128 92.608-110.144C520.576 302.656 608 244.768 608 107.328c0-12.384-10.144-22.368-22.688-22.368h-109.76C460.064 56.288 413.824 25.6 320 25.6c-93.888 0-140.064 30.688-155.584 59.36H54.624C42.112 84.96 32 94.976 32 107.328c0 137.44 87.36 195.328 157.632 241.888 57.408 38.016 92.608 63.712 92.608 110.144v41.952c-60.288 6.688-104.608 28.992-104.608 55.552 0 31.808 63.744 57.568 142.368 57.568s142.368-25.76 142.368-57.568c0-26.56-44.32-48.864-104.608-55.552v-41.92zM446.624 297.6c18.112-38.368 32.512-90.432 34.816-167.872h80.32c-7.68 86.432-59.584 130.048-115.136 167.872zM320 64.832c87.424-.064 121.568 35.68 121.536 48.928 0 13.376-34.112 49.056-121.536 49.12-87.424-.032-121.568-35.712-121.568-49.088-.032-13.248 34.144-49.024 121.568-48.96zM78.24 129.728h80.288c2.336 77.44 16.672 129.504 34.848 167.872-55.552-37.824-107.488-81.44-115.136-167.872z"/></svg><svg viewBox="0 0 32 32" id="twitter" xmlns="http://www.w3.org/2000/svg"><path d="M32 7.075a12.941 12.941 0 01-3.769 1.031 6.601 6.601 0 002.887-3.631 13.21 13.21 0 01-4.169 1.594A6.565 6.565 0 0022.155 4a6.563 6.563 0 00-6.563 6.563c0 .512.056 1.012.169 1.494A18.635 18.635 0 012.23 5.195a6.56 6.56 0 00-.887 3.3 6.557 6.557 0 002.919 5.463 6.565 6.565 0 01-2.975-.819v.081a6.565 6.565 0 005.269 6.437 6.574 6.574 0 01-2.968.112 6.588 6.588 0 006.131 4.563 13.17 13.17 0 01-9.725 2.719 18.568 18.568 0 0010.069 2.95c12.075 0 18.681-10.006 18.681-18.681 0-.287-.006-.569-.019-.85A13.216 13.216 0 0032 7.076z"/></svg><svg viewBox="0 0 512 512" id="user" xmlns="http://www.w3.org/2000/svg"><path d="M288 353.306v-26.39c35.249-19.864 64-69.386 64-118.916 0-79.529 0-144-96-144s-96 64.471-96 144c0 49.53 28.751 99.052 64 118.916v26.39C115.449 362.18 32 415.516 32 480h448c0-64.484-83.449-117.82-192-126.694z"/></svg></svg>