<?xml version="1.0" encoding="utf-8"?><svg viewBox="0 0 640 640" xmlns="http://www.w3.org/2000/svg" xmlns:xlink="http://www.w3.org/1999/xlink"><style>:root>svg{display:none}:root>svg:target{display:block}</style><svg viewBox="0 0 32 32" id="facebook" xmlns="http://www.w3.org/2000/svg"><path d="M19 6h5V0h-5c-3.86 0-7 3.14-7 7v3H8v6h4v16h6V16h5l1-6h-6V7c0-.542.458-1 1-1z"/></svg><svg viewBox="0 0 640 640" id="feather" xmlns="http://www.w3.org/2000/svg"><path d="M136.128 626.144c9.824-31.424 24.64-75.648 44.512-139.584 86.624-13.728 122.464 10.912 177.472-87.328-44.64 13.664-98.464-25.344-95.584-42.272 2.912-16.896 125.216 12.192 205.312-101.536-100.96 22.272-133.248-26.752-120.224-34.144 30.048-17.088 119.232-7.104 166.784-53.408 24.512-23.84 36-81.792 26.016-102.464-11.968-24.992-84.992-62.272-125.248-58.752-40.256 3.488-103.392 153.28-122.144 152.128-18.688-1.184-22.496-67.136 10.208-128.416C268.768 45.632 205.6 93.056 185.792 133.6c-36.896 75.424 3.456 248.512-9.472 254.656-12.96 6.176-56.512-79.392-69.504-118.208-17.76 59.488-18.176 119.072 33.696 198.208-19.552 51.936-30.24 111.712-31.872 142.112-.768 24.288 23.168 29.504 27.488 15.776z"/></svg><svg viewBox="0 0 20 20" id="google" xmlns="http://www.w3.org/2000/svg"><path d="M1.989 5.589c0 1.494.499 2.572 1.482 3.205.806.52 1.74.598 2.226.598.118 0 .213-.006.279-.01 0 0-.154 1.004.59 1.996h-.034c-1.289 0-5.493.269-5.493 3.727 0 3.516 3.861 3.695 4.636 3.695.061 0 .097-.002.097-.002.008 0 .063.002.158.002.497 0 1.782-.062 2.975-.643 1.548-.75 2.333-2.059 2.333-3.885 0-1.764-1.196-2.814-2.069-3.582-.533-.469-.994-.873-.994-1.266 0-.4.337-.701.762-1.082.689-.615 1.339-1.492 1.339-3.15 0-1.457-.189-2.436-1.354-3.057.121-.062.551-.107.763-.137.631-.086 1.554-.184 1.554-.699V1.2H6.64c-.046.002-4.651.172-4.651 4.389zm7.424 9.013c.088 1.406-1.115 2.443-2.922 2.574-1.835.135-3.345-.691-3.433-2.096-.043-.676.254-1.336.835-1.863.589-.533 1.398-.863 2.278-.928.104-.006.207-.012.31-.012 1.699.001 2.849.999 2.932 2.325zM8.212 4.626c.451 1.588-.23 3.246-1.316 3.553a1.417 1.417 0 01-.384.052c-.994 0-1.979-1.006-2.345-2.393-.204-.776-.187-1.458.047-2.112.229-.645.643-1.078 1.163-1.225.125-.035.254-.053.385-.053 1.2 0 1.972.498 2.45 2.178zM16 8V5h-2v3h-3v2h3v3h2v-3h3V8h-3z"/></svg><svg viewBox="0 0 640 640" id="heart-outlined" xmlns="http://www.w3.org/2000/svg"><path d="M550.08 132.992c-53.504-49.12-140.256-49.12-193.76 0L320 166.304l-36.352-33.312c-53.504-49.12-140.224-49.12-193.728 0-60.192 55.232-60.192 144.608 0 199.84L320 544l230.08-211.168c60.16-55.232 60.16-144.64 0-199.84zM515.968 300L320 482.88 124 300c-19.744-18.144-27.392-41.824-27.392-67.008s4.416-45.856 24.192-63.968c17.44-16.032 40.896-24.864 66.016-24.864 25.088 0 48.544 15.232 65.984 31.296l67.2 58.4 67.168-58.432c17.472-16.064 40.896-31.296 66.016-31.296s48.576 8.832 66.016 24.864c19.776 18.112 24.16 38.784 24.16 63.968s-7.616 48.896-27.392 67.04z"/></svg><svg viewBox="0 0 32 32" id="linkedin" xmlns="http://www.w3.org/2000/svg"><path d="M12 12h5.535v2.837h.079c.77-1.381 2.655-2.837 5.464-2.837C28.92 12 30 15.637 30 20.367V30h-5.769v-8.54c0-2.037-.042-4.657-3.001-4.657-3.005 0-3.463 2.218-3.463 4.509V30H12V12zM2 12h6v18H2V12zM8 7a3 3 0 11-6 0 3 3 0 016 0z"/></svg><svg viewBox="0 0 640 640" id="megaphone" xmlns="http://www.w3.org/2000/svg"><path d="M551.136 224.96C500.448 107.008 418.912 17.28 377.664 34.016 307.616 62.528 419.392 199.264 75.36 339.072c-29.728 12.128-37.248 60.416-24.8 89.344 12.416 28.864 53.056 57.632 82.784 45.568 5.152-2.112 24.032-8.192 24.032-8.192 21.216 28.512 43.424 11.616 51.328 29.696 9.472 21.76 30.048 69.056 37.056 85.12s22.88 30.944 34.4 26.56a38585.999 38585.999 0 0165.6-24.928c14.976-5.696 18.528-19.072 13.952-29.568-4.928-11.36-25.152-14.688-30.944-27.936-5.76-13.184-24.608-55.616-30.016-68.992-7.36-18.176 8.288-32.992 31.04-35.328 156.608-16.384 185.888 80.384 239.2 58.688 41.184-16.8 32.8-136.288-17.856-254.144zm-17.632 191.232c-9.184 3.68-70.816-44.864-110.176-136.544-39.392-91.616-34.432-175.36-25.28-179.104 9.152-3.68 69.28 54.944 108.64 146.56 39.392 91.616 35.968 165.344 26.816 169.088z"/></svg><svg viewBox="0 0 640 640" id="pencil" xmlns="http://www.w3.org/2000/svg"><path d="M561.952 78.048c-46.144-46.176-80.8-39.264-80.8-39.264L70.72 449.184 38.4 601.568l152.416-32.32 410.432-410.336c-.032 0 6.912-34.656-39.296-80.864zM181.76 550.944l-51.968 11.2c-4.992-9.376-11.04-18.752-22.08-29.824-11.072-11.072-20.448-17.056-29.824-22.112l11.2-51.936 15.04-15.008s28.256.576 60.192 32.512c31.904 31.872 32.512 60.192 32.512 60.192l-15.072 14.976z"/></svg><svg viewBox="0 0 32 32" id="twitter" xmlns="http://www.w3.org/2000/svg"><path d="M32 7.075a12.941 12.941 0 01-3.769 1.031 6.601 6.601 0 002.887-3.631 13.21 13.21 0 01-4.169 1.594A6.565 6.565 0 0022.155 4a6.563 6.563 0 00-6.563 6.563c0 .512.056 1.012.169 1.494A18.635 18.635 0 012.23 5.195a6.56 6.56 0 00-.887 3.3 6.557 6.557 0 002.919 5.463 6.565 6.565 0 01-2.975-.819v.081a6.565 6.565 0 005.269 6.437 6.574 6.574 0 01-2.968.112 6.588 6.588 0 006.131 4.563 13.17 13.17 0 01-9.725 2.719 18.568 18.568 0 0010.069 2.95c12.075 0 18.681-10.006 18.681-18.681 0-.287-.006-.569-.019-.85A13.216 13.216 0 0032 7.076z"/></svg></svg>